<?xml version="1.0" encoding="utf-8"?>
<!-- Generator: $$$/GeneralStr/196=Adobe Illustrator 27.6.0, SVG Export Plug-In . SVG Version: 6.00 Build 0)  -->
<svg version="1.1" id="Calque_1" xmlns="http://www.w3.org/2000/svg" xmlns:xlink="http://www.w3.org/1999/xlink" x="0px" y="0px"
	 viewBox="0 0 273 250" style="enable-background:new 0 0 273 250;" xml:space="preserve">
<path d="M247.4,31.9l2.6-14.3L242.6,5l-13.9-5l-13.9,5l-7.4,12.6v23.7h28.6L247.4,31.9z M222.8,37.7l-9.2-7.7l-2.1-11.8l6-10.4
	l11.3-4.1L240,7.8l6,10.4L244,30l-9.2,7.7H222.8z"/>
<path d="M104.8,144.4h-3.1c-0.4,0-0.6,0.2-0.6,0.6v16.5c0,0.4,0.2,0.6,0.6,0.6h3.1c2,0,3.6-0.7,4.8-2.2c1.3-1.6,1.9-3.7,1.9-6.4
	c0-2.9-0.6-5.1-1.9-6.6C108.4,145.2,106.8,144.4,104.8,144.4z"/>
<path d="M195.2,54.2H157l-19.4-30.5H70.8v12.9L0,55.1v101.3h39.4v20l30.8,14.5v28H101l32.6,30.2h67.1v-62.5h33.9l15.4-65.9v-36
	h-54.8V54.2z M67.3,142.8c0,0.4-0.1,0.7-0.4,1c-0.2,0.2-0.5,0.3-0.9,0.3H50.3c-0.4,0-0.7-0.1-1-0.3c-0.2-0.3-0.3-0.6-0.3-1V95.2
	c0-0.3-0.1-0.4-0.2-0.4c-0.1-0.1-0.3,0-0.4,0.2l-7.8,13.5c-0.3,0.6-0.5,0.9-0.7,0.9s-0.4-0.3-0.8-0.9L31.3,95
	c-0.1-0.2-0.3-0.3-0.4-0.3c-0.1,0-0.2,0.1-0.2,0.4v47.7c0,0.4-0.1,0.7-0.4,1c-0.2,0.2-0.5,0.3-0.9,0.3H13.6c-0.4,0-0.7-0.1-1-0.3
	c-0.2-0.3-0.3-0.6-0.3-1V67.8c0-0.4,0.1-0.7,0.3-0.9c0.3-0.3,0.6-0.4,1-0.4h15.5c0.7,0,1.3,0.3,1.7,0.9l8.9,16.1
	c0.2,0.3,0.4,0.3,0.7,0l8.6-16.1c0.3-0.6,0.8-0.9,1.7-0.9H66c0.4,0,0.7,0.1,0.9,0.4c0.3,0.2,0.4,0.5,0.4,0.9V142.8z M83,37
	c0-0.4,0.1-0.7,0.3-0.9c0.3-0.3,0.6-0.4,1-0.4h39.9c0.4,0,0.7,0.1,0.9,0.4c0.3,0.2,0.4,0.5,0.4,0.9v13.1c0,0.4-0.1,0.7-0.4,1
	c-0.2,0.2-0.5,0.3-0.9,0.3H102c-0.4,0-0.6,0.2-0.6,0.6v14c0,0.4,0.2,0.6,0.6,0.6h12.2c0.4,0,0.7,0.1,0.9,0.4
	c0.3,0.2,0.4,0.5,0.4,0.9V81c0,0.4-0.1,0.7-0.4,1c-0.2,0.2-0.5,0.3-0.9,0.3H102c-0.4,0-0.6,0.2-0.6,0.6V97c0,0.4,0.2,0.6,0.6,0.6
	h22.3c0.4,0,0.7,0.1,0.9,0.4c0.3,0.2,0.4,0.5,0.4,0.9V112c0,0.4-0.1,0.7-0.4,1c-0.2,0.2-0.5,0.3-0.9,0.3H84.3c-0.4,0-0.7-0.1-1-0.3
	c-0.2-0.3-0.3-0.6-0.3-1V37z M127.2,165.3c-1.7,3.5-4.1,6.2-7.3,8.1c-3.2,1.9-6.8,2.9-11,2.9h-7.2c-0.4,0-0.6,0.2-0.6,0.6V205
	c0,0.4-0.1,0.7-0.4,1c-0.2,0.2-0.5,0.3-0.9,0.3H84.1c-0.4,0-0.7-0.1-1-0.3c-0.2-0.3-0.3-0.6-0.3-1V130c0-0.4,0.1-0.7,0.3-0.9
	c0.3-0.3,0.6-0.4,1-0.4h23.9c4.3,0,8.1,1,11.3,3.1c3.3,2,5.9,4.8,7.8,8.5c1.8,3.7,2.8,7.9,2.8,12.6S129,161.7,127.2,165.3z
	 M141.2,143.8c-0.2-0.3-0.3-0.6-0.3-1V67.8c0-0.4,0.1-0.7,0.3-0.9c0.3-0.3,0.6-0.4,1-0.4h39.9c0.4,0,0.7,0.1,0.9,0.4
	c0.3,0.2,0.4,0.5,0.4,0.9v13.1c0,0.4-0.1,0.7-0.4,1c-0.2,0.2-0.5,0.3-0.9,0.3h-22.3c-0.4,0-0.6,0.2-0.6,0.6v14
	c0,0.4,0.2,0.6,0.6,0.6H172c0.4,0,0.7,0.1,0.9,0.4c0.3,0.2,0.4,0.5,0.4,0.9v13.2c0,0.4-0.1,0.7-0.4,1c-0.2,0.2-0.5,0.3-0.9,0.3
	h-12.2c-0.4,0-0.6,0.2-0.6,0.6v14.1c0,0.4,0.2,0.6,0.6,0.6h22.3c0.4,0,0.7,0.1,0.9,0.4c0.3,0.2,0.4,0.5,0.4,0.9v13.1
	c0,0.4-0.1,0.7-0.4,1c-0.2,0.2-0.5,0.3-0.9,0.3h-39.9C141.8,144.1,141.5,144,141.2,143.8z M188.4,173.9c0,0.4-0.1,0.7-0.4,1
	c-0.2,0.2-0.5,0.3-0.9,0.3h-22.3c-0.4,0-0.6,0.2-0.6,0.6v14c0,0.4,0.2,0.6,0.6,0.6H177c0.4,0,0.7,0.1,0.9,0.4
	c0.3,0.2,0.4,0.5,0.4,0.9v13.2c0,0.4-0.1,0.7-0.4,1c-0.2,0.2-0.5,0.3-0.9,0.3h-12.2c-0.4,0-0.6,0.2-0.6,0.6v14.1
	c0,0.4,0.2,0.6,0.6,0.6H187c0.4,0,0.7,0.1,0.9,0.4c0.3,0.2,0.4,0.5,0.4,0.9v13.1c0,0.4-0.1,0.7-0.4,1c-0.2,0.2-0.5,0.3-0.9,0.3
	h-39.9c-0.4,0-0.7-0.1-1-0.3c-0.2-0.3-0.3-0.6-0.3-1v-74.9c0-0.4,0.1-0.7,0.3-0.9c0.3-0.3,0.6-0.4,1-0.4H187c0.4,0,0.7,0.1,0.9,0.4
	c0.3,0.2,0.4,0.5,0.4,0.9V173.9z M236.4,97.3c0.4,0,0.7,0.1,0.9,0.4c0.3,0.2,0.4,0.5,0.4,0.9v13.1c0,0.4-0.1,0.7-0.4,1
	c-0.2,0.2-0.5,0.3-0.9,0.3h-13.7c-0.4,0-0.6,0.2-0.6,0.6v60c0,0.4-0.1,0.7-0.4,1c-0.2,0.2-0.5,0.3-0.9,0.3H205c-0.4,0-0.7-0.1-1-0.3
	c-0.2-0.3-0.3-0.6-0.3-1v-60c0-0.4-0.2-0.6-0.6-0.6h-13.2c-0.4,0-0.7-0.1-1-0.3c-0.2-0.3-0.3-0.6-0.3-1V98.6c0-0.4,0.1-0.7,0.3-0.9
	c0.3-0.3,0.6-0.4,1-0.4H236.4z"/>
<path d="M234.7,19.4c1.1,0,2.1-0.9,2.1-2c0-1.1-0.9-2-2.1-2c-1.1,0-2.1,0.9-2.1,2C232.6,18.5,233.5,19.4,234.7,19.4z"/>
<path d="M235.3,24.5c0,0-2.1,2.5-5.9,2.5c-3.8,0-5.9-2.4-5.9-2.5c-0.4-0.4-1-0.5-1.4-0.1c-0.4,0.4-0.5,1-0.2,1.4
	c0.1,0.1,2.7,3.2,7.5,3.2c4.8,0,7.4-3.1,7.5-3.2c0.3-0.4,0.3-1.1-0.1-1.4C236.3,24,235.7,24.1,235.3,24.5z"/>
<path d="M224.1,19.4c1.1,0,2.1-0.9,2.1-2c0-1.1-0.9-2-2.1-2c-1.1,0-2.1,0.9-2.1,2C222,18.5,222.9,19.4,224.1,19.4z"/>
<path d="M211.2,209v-12h1.6l4.8,7.8h-0.9l4.8-7.8h1.6v12h-2.3v-8l0.4,0.1l-3.4,5.4h-1.6l-3.4-5.4l0.5-0.1v8H211.2z"/>
<path d="M231.3,209.2c-0.9,0-1.7-0.2-2.4-0.5c-0.7-0.3-1.4-0.8-2-1.3c-0.6-0.6-1-1.2-1.3-2c-0.3-0.8-0.5-1.6-0.5-2.4
	c0-0.9,0.2-1.7,0.5-2.4c0.3-0.7,0.8-1.4,1.3-2c0.6-0.6,1.2-1,2-1.3c0.7-0.3,1.6-0.5,2.4-0.5c0.9,0,1.7,0.2,2.4,0.5
	c0.7,0.3,1.4,0.7,2,1.3c0.6,0.6,1,1.2,1.3,2c0.3,0.7,0.5,1.6,0.5,2.4c0,0.9-0.2,1.7-0.5,2.4c-0.3,0.7-0.8,1.4-1.3,2
	c-0.6,0.6-1.2,1-2,1.3C232.9,209,232.1,209.2,231.3,209.2z M231.2,207c0.8,0,1.4-0.2,2-0.5c0.6-0.3,1-0.8,1.3-1.4
	c0.3-0.6,0.5-1.3,0.5-2.1c0-0.6-0.1-1.1-0.3-1.6c-0.2-0.5-0.4-0.9-0.8-1.3c-0.3-0.4-0.7-0.6-1.2-0.8c-0.5-0.2-1-0.3-1.6-0.3
	c-0.7,0-1.4,0.2-2,0.5c-0.6,0.3-1,0.8-1.3,1.4c-0.3,0.6-0.5,1.3-0.5,2.1c0,0.6,0.1,1.2,0.3,1.6c0.2,0.5,0.5,0.9,0.8,1.3
	c0.3,0.4,0.7,0.6,1.2,0.8C230.2,206.9,230.7,207,231.2,207z"/>
<path d="M242.5,209l-4.7-12h2.5l3.6,9.7h-1l3.7-9.7h2.5l-4.8,12H242.5z"/>
<path d="M250.7,209v-12h2.3v12H250.7z M252.4,209v-2h6.6v2H252.4z M252.4,203.9v-2h6v2H252.4z M252.4,199.1v-2h6.5v2H252.4z"/>
<path d="M211.2,229v-12h1.6l4.8,7.8h-0.9l4.8-7.8h1.6v12h-2.3v-8l0.4,0.1l-3.4,5.4h-1.6l-3.4-5.4l0.5-0.1v8H211.2z"/>
<path d="M225.7,229v-12h2.3v12H225.7z M227.4,229v-2h6.6v2H227.4z M227.4,223.9v-2h6v2H227.4z M227.4,219.1v-2h6.5v2H227.4z"/>
<path d="M235.9,229v-12h2.3v12H235.9z M237.6,229v-2h6.6v2H237.6z M237.6,223.9v-2h6v2H237.6z M237.6,219.1v-2h6.5v2H237.6z"/>
<path d="M248.7,229v-11.7h2.3V229H248.7z M244.9,219.1V217h9.9v2.1H244.9z"/>
<path d="M214.7,249.2c-1,0-1.8-0.2-2.5-0.5c-0.7-0.3-1.3-0.8-1.9-1.5l1.5-1.5c0.4,0.5,0.8,0.8,1.2,1.1c0.5,0.2,1,0.4,1.7,0.4
	c0.6,0,1.1-0.1,1.4-0.4c0.4-0.2,0.5-0.6,0.5-1c0-0.4-0.1-0.7-0.3-0.9c-0.2-0.2-0.5-0.4-0.8-0.6c-0.3-0.2-0.7-0.3-1.1-0.4
	c-0.4-0.1-0.8-0.3-1.2-0.5c-0.4-0.2-0.8-0.4-1.1-0.6c-0.3-0.3-0.6-0.6-0.8-1c-0.2-0.4-0.3-0.9-0.3-1.5c0-0.7,0.2-1.3,0.5-1.9
	c0.4-0.5,0.8-0.9,1.4-1.2c0.6-0.3,1.3-0.4,2.1-0.4c0.8,0,1.6,0.2,2.2,0.5s1.2,0.7,1.6,1.2l-1.5,1.5c-0.4-0.4-0.7-0.7-1.1-0.9
	c-0.4-0.2-0.8-0.3-1.2-0.3c-0.5,0-1,0.1-1.3,0.3c-0.3,0.2-0.5,0.5-0.5,0.9c0,0.3,0.1,0.6,0.3,0.8c0.2,0.2,0.5,0.4,0.8,0.5
	c0.3,0.1,0.7,0.3,1.1,0.4c0.4,0.1,0.8,0.3,1.2,0.5c0.4,0.2,0.8,0.4,1.1,0.7c0.3,0.3,0.6,0.6,0.8,1.1c0.2,0.4,0.3,0.9,0.3,1.6
	c0,1.1-0.4,2-1.2,2.6C217.1,248.9,216.1,249.2,214.7,249.2z"/>
<path d="M220.9,249v-12h2.3v12H220.9z M228.4,249v-12h2.3v12H228.4z M222.4,243.8v-2h6.7v2H222.4z"/>
<path d="M232.3,249l4.8-12h1.9l4.8,12h-2.5l-3.7-9.8h0.9l-3.8,9.8H232.3z M234.8,246.8v-1.9h6.4v1.9H234.8z"/>
<path d="M246.9,244v-1.8h2.8c0.6,0,1-0.1,1.3-0.4c0.3-0.3,0.5-0.7,0.5-1.2c0-0.5-0.2-0.8-0.5-1.2c-0.3-0.3-0.7-0.5-1.3-0.5h-2.8V237
	h3c0.8,0,1.4,0.2,2,0.5c0.6,0.3,1,0.7,1.4,1.2c0.3,0.5,0.5,1.1,0.5,1.8c0,0.7-0.2,1.3-0.5,1.8c-0.3,0.5-0.8,0.9-1.4,1.2
	c-0.6,0.3-1.3,0.4-2.1,0.4H246.9z M245.2,249v-12h2.3v12H245.2z M251.7,249l-3.9-5.2l2.1-0.7l4.6,5.8H251.7z"/>
<path d="M255.8,249v-12h2.3v12H255.8z M257.5,249v-2h6.6v2H257.5z M257.5,243.9v-2h6v2H257.5z M257.5,239.1v-2h6.5v2H257.5z"/>
</svg>
