<svg width="273" height="250" viewBox="0 0 273 250" fill="none" xmlns="http://www.w3.org/2000/svg">
<path d="M247.438 31.9027L250 17.5739L242.623 4.97537L228.756 0L214.889 4.97537L207.512 17.5739V41.2562H236.133L247.438 31.9027ZM222.752 37.734L213.559 30.0185L211.478 18.1958L217.482 7.80172L228.762 3.69458L240.043 7.80172L246.047 18.1958L243.959 30.0185L234.766 37.734H222.752Z" fill="url(#paint0_linear_177_8)"/>
<path d="M104.84 144.434H101.736C101.367 144.434 101.182 144.618 101.182 144.988V161.502C101.182 161.872 101.367 162.057 101.736 162.057H104.84C106.835 162.057 108.424 161.318 109.606 159.84C110.862 158.288 111.49 156.145 111.49 153.411C111.49 150.53 110.862 148.313 109.606 146.761C108.424 145.209 106.835 144.434 104.84 144.434Z" fill="url(#paint1_linear_177_8)"/>
<path d="M195.197 54.1872H157.02L137.623 23.7069H70.8128V36.6379L0 55.1108V156.404H39.4089V176.416L70.197 190.887V218.904H100.985L133.621 249.076H200.739V186.576H234.606L250 120.69V84.6675H195.197V54.1872ZM67.3399 142.759C67.3399 143.128 67.1921 143.461 66.8966 143.756C66.6749 143.978 66.3793 144.089 66.0098 144.089H50.2709C49.9015 144.089 49.569 143.978 49.2734 143.756C49.0517 143.461 48.9409 143.128 48.9409 142.759V95.2094C48.9409 94.9138 48.867 94.766 48.7192 94.766C48.5714 94.6921 48.4236 94.766 48.2759 94.9877L40.5172 108.51C40.2217 109.101 40 109.397 39.8522 109.397C39.7044 109.397 39.4458 109.101 39.0764 108.51L31.3177 94.9877C31.17 94.766 31.0222 94.6552 30.8744 94.6552C30.7266 94.6552 30.6527 94.803 30.6527 95.0985V142.759C30.6527 143.128 30.5049 143.461 30.2094 143.756C29.9877 143.978 29.6921 144.089 29.3227 144.089H13.5837C13.2143 144.089 12.8818 143.978 12.5862 143.756C12.3645 143.461 12.2537 143.128 12.2537 142.759V67.8325C12.2537 67.4631 12.3645 67.1675 12.5862 66.9458C12.8818 66.6502 13.2143 66.5025 13.5837 66.5025H29.101C29.8399 66.5025 30.3941 66.798 30.7635 67.3892L39.6305 83.4606C39.8522 83.7562 40.0739 83.7562 40.2956 83.4606L48.9409 67.3892C49.2365 66.798 49.7906 66.5025 50.6034 66.5025H66.0098C66.3793 66.5025 66.6749 66.6502 66.8966 66.9458C67.1921 67.1675 67.3399 67.4631 67.3399 67.8325V142.759ZM83.0049 37.0443C83.0049 36.6749 83.1158 36.3793 83.3374 36.1576C83.633 35.8621 83.9655 35.7143 84.335 35.7143H124.236C124.606 35.7143 124.901 35.8621 125.123 36.1576C125.419 36.3793 125.566 36.6749 125.566 37.0443V50.1232C125.566 50.4926 125.419 50.8251 125.123 51.1207C124.901 51.3424 124.606 51.4532 124.236 51.4532H101.958C101.589 51.4532 101.404 51.6379 101.404 52.0074V65.9729C101.404 66.3424 101.589 66.5271 101.958 66.5271H114.15C114.52 66.5271 114.815 66.6749 115.037 66.9704C115.333 67.1921 115.48 67.4877 115.48 67.8571V81.0468C115.48 81.4162 115.333 81.7488 115.037 82.0443C114.815 82.266 114.52 82.3768 114.15 82.3768H101.958C101.589 82.3768 101.404 82.5616 101.404 82.931V97.0074C101.404 97.3768 101.589 97.5616 101.958 97.5616H124.236C124.606 97.5616 124.901 97.7094 125.123 98.0049C125.419 98.2266 125.566 98.5222 125.566 98.8916V111.97C125.566 112.34 125.419 112.672 125.123 112.968C124.901 113.19 124.606 113.3 124.236 113.3H84.335C83.9655 113.3 83.633 113.19 83.3374 112.968C83.1158 112.672 83.0049 112.34 83.0049 111.97V37.0443ZM127.229 165.271C125.53 168.744 123.091 171.441 119.914 173.362C116.736 175.283 113.079 176.244 108.941 176.244H101.736C101.367 176.244 101.182 176.429 101.182 176.798V204.951C101.182 205.32 101.034 205.653 100.739 205.948C100.517 206.17 100.222 206.281 99.8522 206.281H84.1133C83.7438 206.281 83.4113 206.17 83.1158 205.948C82.8941 205.653 82.7832 205.32 82.7832 204.951V130.025C82.7832 129.655 82.8941 129.36 83.1158 129.138C83.4113 128.842 83.7438 128.695 84.1133 128.695H108.054C112.34 128.695 116.108 129.729 119.36 131.798C122.685 133.793 125.271 136.638 127.118 140.333C128.966 144.027 129.889 148.239 129.889 152.968C129.889 157.697 129.002 161.724 127.229 165.271ZM141.219 143.756C140.998 143.461 140.887 143.128 140.887 142.759V67.8325C140.887 67.4631 140.998 67.1675 141.219 66.9458C141.515 66.6502 141.847 66.5025 142.217 66.5025H182.118C182.488 66.5025 182.783 66.6502 183.005 66.9458C183.3 67.1675 183.448 67.4631 183.448 67.8325V80.9113C183.448 81.2808 183.3 81.6133 183.005 81.9089C182.783 82.1305 182.488 82.2414 182.118 82.2414H159.84C159.47 82.2414 159.286 82.4261 159.286 82.7956V96.7611C159.286 97.1305 159.47 97.3153 159.84 97.3153H172.032C172.401 97.3153 172.697 97.463 172.919 97.7586C173.214 97.9803 173.362 98.2759 173.362 98.6453V111.835C173.362 112.204 173.214 112.537 172.919 112.833C172.697 113.054 172.401 113.165 172.032 113.165H159.84C159.47 113.165 159.286 113.35 159.286 113.719V127.796C159.286 128.165 159.47 128.35 159.84 128.35H182.118C182.488 128.35 182.783 128.498 183.005 128.793C183.3 129.015 183.448 129.31 183.448 129.68V142.759C183.448 143.128 183.3 143.461 183.005 143.756C182.783 143.978 182.488 144.089 182.118 144.089H142.217C141.847 144.089 141.515 143.978 141.219 143.756ZM188.374 173.892C188.374 174.261 188.227 174.594 187.931 174.889C187.709 175.111 187.414 175.222 187.044 175.222H164.766C164.397 175.222 164.212 175.406 164.212 175.776V189.741C164.212 190.111 164.397 190.296 164.766 190.296H176.958C177.328 190.296 177.623 190.443 177.845 190.739C178.14 190.961 178.288 191.256 178.288 191.626V204.815C178.288 205.185 178.14 205.517 177.845 205.813C177.623 206.034 177.328 206.145 176.958 206.145H164.766C164.397 206.145 164.212 206.33 164.212 206.7V220.776C164.212 221.145 164.397 221.33 164.766 221.33H187.044C187.414 221.33 187.709 221.478 187.931 221.773C188.227 221.995 188.374 222.291 188.374 222.66V235.739C188.374 236.108 188.227 236.441 187.931 236.736C187.709 236.958 187.414 237.069 187.044 237.069H147.143C146.773 237.069 146.441 236.958 146.145 236.736C145.924 236.441 145.813 236.108 145.813 235.739V160.813C145.813 160.443 145.924 160.148 146.145 159.926C146.441 159.631 146.773 159.483 147.143 159.483H187.044C187.414 159.483 187.709 159.631 187.931 159.926C188.227 160.148 188.374 160.443 188.374 160.813V173.892ZM236.367 97.2906C236.736 97.2906 237.032 97.4384 237.254 97.734C237.549 97.9557 237.697 98.2512 237.697 98.6207V111.7C237.697 112.069 237.549 112.401 237.254 112.697C237.032 112.919 236.736 113.03 236.367 113.03H222.623C222.254 113.03 222.069 113.214 222.069 113.584V173.547C222.069 173.916 221.921 174.249 221.626 174.544C221.404 174.766 221.108 174.877 220.739 174.877H205C204.631 174.877 204.298 174.766 204.002 174.544C203.781 174.249 203.67 173.916 203.67 173.547V113.584C203.67 113.214 203.485 113.03 203.116 113.03H189.926C189.557 113.03 189.224 112.919 188.929 112.697C188.707 112.401 188.596 112.069 188.596 111.7V98.6207C188.596 98.2512 188.707 97.9557 188.929 97.734C189.224 97.4384 189.557 97.2906 189.926 97.2906H236.367Z" fill="url(#paint2_linear_177_8)"/>
<path d="M234.674 19.4212C235.807 19.4212 236.73 18.5222 236.73 17.4076C236.73 16.2931 235.813 15.3941 234.674 15.3941C233.534 15.3941 232.623 16.2931 232.623 17.4076C232.623 18.5222 233.541 19.4212 234.674 19.4212Z" fill="url(#paint3_linear_177_8)"/>
<path d="M235.345 24.4951C235.345 24.4951 233.202 26.9889 229.403 26.9889C225.603 26.9889 223.547 24.5874 223.454 24.4951C223.085 24.0764 222.475 24.0148 222.044 24.3473C221.613 24.7106 221.552 25.3079 221.89 25.7266C221.983 25.8498 224.587 28.9409 229.372 28.9409C234.156 28.9409 236.73 25.8498 236.847 25.7266C237.186 25.3079 237.124 24.6736 236.755 24.3473C236.324 24.0148 235.684 24.0764 235.345 24.4951Z" fill="url(#paint4_linear_177_8)"/>
<path d="M224.07 19.4212C225.203 19.4212 226.127 18.5222 226.127 17.4076C226.127 16.2931 225.209 15.3941 224.07 15.3941C222.931 15.3941 222.014 16.2931 222.014 17.4076C222.014 18.5222 222.931 19.4212 224.07 19.4212Z" fill="url(#paint5_linear_177_8)"/>
<path d="M211.224 209V197.049H212.856L217.701 204.801H216.766L221.594 197.049H223.226V209H220.931V201.01L221.373 201.146L218.007 206.552H216.443L213.077 201.146L213.536 201.01V209H211.224Z" fill="url(#paint6_linear_177_8)"/>
<path d="M231.26 209.187C230.388 209.187 229.572 209.028 228.812 208.711C228.064 208.394 227.407 207.957 226.84 207.402C226.285 206.835 225.849 206.178 225.531 205.43C225.214 204.671 225.055 203.86 225.055 202.999C225.055 202.138 225.208 201.339 225.514 200.602C225.832 199.854 226.268 199.202 226.823 198.647C227.39 198.08 228.047 197.644 228.795 197.338C229.543 197.021 230.354 196.862 231.226 196.862C232.11 196.862 232.926 197.021 233.674 197.338C234.422 197.644 235.074 198.08 235.629 198.647C236.196 199.202 236.638 199.854 236.955 200.602C237.273 201.35 237.431 202.155 237.431 203.016C237.431 203.877 237.273 204.682 236.955 205.43C236.638 206.178 236.196 206.835 235.629 207.402C235.074 207.957 234.422 208.394 233.674 208.711C232.938 209.028 232.133 209.187 231.26 209.187ZM231.226 207.028C231.997 207.028 232.666 206.858 233.232 206.518C233.799 206.178 234.241 205.708 234.558 205.107C234.887 204.506 235.051 203.804 235.051 202.999C235.051 202.41 234.961 201.871 234.779 201.384C234.598 200.897 234.337 200.477 233.997 200.126C233.657 199.763 233.255 199.486 232.79 199.293C232.326 199.1 231.804 199.004 231.226 199.004C230.478 199.004 229.815 199.174 229.237 199.514C228.671 199.843 228.223 200.307 227.894 200.908C227.577 201.509 227.418 202.206 227.418 202.999C227.418 203.6 227.509 204.149 227.69 204.648C227.883 205.147 228.144 205.572 228.472 205.923C228.812 206.274 229.215 206.546 229.679 206.739C230.155 206.932 230.671 207.028 231.226 207.028Z" fill="url(#paint7_linear_177_8)"/>
<path d="M245.006 209.187C244.134 209.187 243.318 209.028 242.558 208.711C241.81 208.394 241.153 207.957 240.586 207.402C240.031 206.835 239.595 206.178 239.277 205.43C238.96 204.671 238.801 203.86 238.801 202.999C238.801 202.138 238.954 201.339 239.26 200.602C239.578 199.854 240.014 199.202 240.569 198.647C241.136 198.08 241.793 197.644 242.541 197.338C243.289 197.021 244.1 196.862 244.972 196.862C245.856 196.862 246.672 197.021 247.42 197.338C248.168 197.644 248.82 198.08 249.375 198.647C249.942 199.202 250.384 199.854 250.701 200.602C251.019 201.35 251.177 202.155 251.177 203.016C251.177 203.877 251.019 204.682 250.701 205.43C250.384 206.178 249.942 206.835 249.375 207.402C248.82 207.957 248.168 208.394 247.42 208.711C246.684 209.028 245.879 209.187 245.006 209.187ZM244.972 207.028C245.743 207.028 246.412 206.858 246.978 206.518C247.545 206.178 247.987 205.708 248.304 205.107C248.633 204.506 248.797 203.804 248.797 202.999C248.797 202.41 248.707 201.871 248.525 201.384C248.344 200.897 248.083 200.477 247.743 200.126C247.403 199.763 247.001 199.486 246.536 199.293C246.072 199.1 245.55 199.004 244.972 199.004C244.224 199.004 243.561 199.174 242.983 199.514C242.417 199.843 241.969 200.307 241.64 200.908C241.323 201.509 241.164 202.206 241.164 202.999C241.164 203.6 241.255 204.149 241.436 204.648C241.629 205.147 241.89 205.572 242.218 205.923C242.558 206.274 242.961 206.546 243.425 206.739C243.901 206.932 244.417 207.028 244.972 207.028Z" fill="url(#paint8_linear_177_8)"/>
<path d="M256.287 209L251.578 197.049H254.077L257.715 206.722H256.746L260.418 197.049H262.883L258.123 209H256.287Z" fill="url(#paint9_linear_177_8)"/>
<path d="M264.449 209V197.049H266.761V209H264.449ZM266.149 209V206.96H272.762V209H266.149ZM266.149 203.883V201.911H272.167V203.883H266.149ZM266.149 199.089V197.049H272.677V199.089H266.149Z" fill="url(#paint10_linear_177_8)"/>
<path d="M211.224 229V217.049H212.856L217.701 224.801H216.766L221.594 217.049H223.226V229H220.931V221.01L221.373 221.146L218.007 226.552H216.443L213.077 221.146L213.536 221.01V229H211.224Z" fill="url(#paint11_linear_177_8)"/>
<path d="M225.667 229V217.049H227.979V229H225.667ZM227.367 229V226.96H233.98V229H227.367ZM227.367 223.883V221.911H233.385V223.883H227.367ZM227.367 219.089V217.049H233.895V219.089H227.367Z" fill="url(#paint12_linear_177_8)"/>
<path d="M235.894 229V217.049H238.206V229H235.894ZM237.594 229V226.96H244.207V229H237.594ZM237.594 223.883V221.911H243.612V223.883H237.594ZM237.594 219.089V217.049H244.122V219.089H237.594Z" fill="url(#paint13_linear_177_8)"/>
<path d="M248.697 229V217.304H251.026V229H248.697ZM244.889 219.106V217.049H254.834V219.106H244.889Z" fill="url(#paint14_linear_177_8)"/>
<path d="M214.692 249.17C213.729 249.17 212.901 249.006 212.21 248.677C211.53 248.348 210.912 247.855 210.357 247.198L211.887 245.668C212.238 246.133 212.646 246.495 213.111 246.756C213.576 247.005 214.142 247.13 214.811 247.13C215.412 247.13 215.888 247.011 216.239 246.773C216.602 246.535 216.783 246.206 216.783 245.787C216.783 245.424 216.681 245.13 216.477 244.903C216.273 244.676 216.001 244.484 215.661 244.325C215.332 244.166 214.964 244.025 214.556 243.9C214.159 243.764 213.757 243.611 213.349 243.441C212.952 243.271 212.584 243.061 212.244 242.812C211.915 242.551 211.649 242.223 211.445 241.826C211.241 241.418 211.139 240.908 211.139 240.296C211.139 239.571 211.315 238.953 211.666 238.443C212.017 237.933 212.499 237.542 213.111 237.27C213.723 236.998 214.414 236.862 215.185 236.862C216.001 236.862 216.738 237.015 217.395 237.321C218.052 237.627 218.591 238.024 219.01 238.511L217.48 240.041C217.129 239.656 216.766 239.372 216.392 239.191C216.029 239.01 215.616 238.919 215.151 238.919C214.618 238.919 214.199 239.021 213.893 239.225C213.587 239.429 213.434 239.724 213.434 240.109C213.434 240.438 213.536 240.704 213.74 240.908C213.944 241.112 214.21 241.288 214.539 241.435C214.879 241.582 215.247 241.724 215.644 241.86C216.052 241.996 216.454 242.149 216.851 242.319C217.259 242.489 217.627 242.71 217.956 242.982C218.296 243.254 218.568 243.605 218.772 244.036C218.976 244.455 219.078 244.977 219.078 245.6C219.078 246.711 218.687 247.583 217.905 248.218C217.123 248.853 216.052 249.17 214.692 249.17Z" fill="url(#paint15_linear_177_8)"/>
<path d="M220.903 249V237.049H223.215V249H220.903ZM228.4 249V237.049H230.712V249H228.4ZM222.365 243.849V241.809H229.046V243.849H222.365Z" fill="url(#paint16_linear_177_8)"/>
<path d="M232.271 249L237.082 237.049H238.969L243.763 249H241.298L237.592 239.191H238.442L234.685 249H232.271ZM234.821 246.773V244.835H241.247V246.773H234.821Z" fill="url(#paint17_linear_177_8)"/>
<path d="M246.874 244.002V242.2H249.645C250.212 242.2 250.648 242.058 250.954 241.775C251.272 241.48 251.43 241.078 251.43 240.568C251.43 240.103 251.272 239.718 250.954 239.412C250.648 239.095 250.212 238.936 249.645 238.936H246.874V237.049H249.849C250.62 237.049 251.294 237.202 251.872 237.508C252.462 237.803 252.915 238.211 253.232 238.732C253.561 239.253 253.725 239.854 253.725 240.534C253.725 241.237 253.561 241.849 253.232 242.37C252.915 242.88 252.462 243.282 251.872 243.577C251.283 243.86 250.597 244.002 249.815 244.002H246.874ZM245.174 249V237.049H247.486V249H245.174ZM251.702 249L247.758 243.832L249.883 243.169L254.507 249H251.702Z" fill="url(#paint18_linear_177_8)"/>
<path d="M255.816 249V237.049H258.128V249H255.816ZM257.516 249V246.96H264.129V249H257.516ZM257.516 243.883V241.911H263.534V243.883H257.516ZM257.516 239.089V237.049H264.044V239.089H257.516Z" fill="url(#paint19_linear_177_8)"/>
<defs>
<linearGradient id="paint0_linear_177_8" x1="273" y1="-1.07059e-05" x2="9.63902e-07" y2="249" gradientUnits="userSpaceOnUse">
<stop stop-color="#FEA855"/>
<stop offset="1" stop-color="#FF4C00"/>
</linearGradient>
<linearGradient id="paint1_linear_177_8" x1="273" y1="-1.07059e-05" x2="9.63902e-07" y2="249" gradientUnits="userSpaceOnUse">
<stop stop-color="#FEA855"/>
<stop offset="1" stop-color="#FF4C00"/>
</linearGradient>
<linearGradient id="paint2_linear_177_8" x1="273" y1="-1.07059e-05" x2="9.63902e-07" y2="249" gradientUnits="userSpaceOnUse">
<stop stop-color="#FEA855"/>
<stop offset="1" stop-color="#FF4C00"/>
</linearGradient>
<linearGradient id="paint3_linear_177_8" x1="273" y1="-1.07059e-05" x2="9.63902e-07" y2="249" gradientUnits="userSpaceOnUse">
<stop stop-color="#FEA855"/>
<stop offset="1" stop-color="#FF4C00"/>
</linearGradient>
<linearGradient id="paint4_linear_177_8" x1="273" y1="-1.07059e-05" x2="9.63902e-07" y2="249" gradientUnits="userSpaceOnUse">
<stop stop-color="#FEA855"/>
<stop offset="1" stop-color="#FF4C00"/>
</linearGradient>
<linearGradient id="paint5_linear_177_8" x1="273" y1="-1.07059e-05" x2="9.63902e-07" y2="249" gradientUnits="userSpaceOnUse">
<stop stop-color="#FEA855"/>
<stop offset="1" stop-color="#FF4C00"/>
</linearGradient>
<linearGradient id="paint6_linear_177_8" x1="273" y1="-1.07059e-05" x2="9.63902e-07" y2="249" gradientUnits="userSpaceOnUse">
<stop stop-color="#FEA855"/>
<stop offset="1" stop-color="#FF4C00"/>
</linearGradient>
<linearGradient id="paint7_linear_177_8" x1="273" y1="-1.07059e-05" x2="9.63902e-07" y2="249" gradientUnits="userSpaceOnUse">
<stop stop-color="#FEA855"/>
<stop offset="1" stop-color="#FF4C00"/>
</linearGradient>
<linearGradient id="paint8_linear_177_8" x1="273" y1="-1.07059e-05" x2="9.63902e-07" y2="249" gradientUnits="userSpaceOnUse">
<stop stop-color="#FEA855"/>
<stop offset="1" stop-color="#FF4C00"/>
</linearGradient>
<linearGradient id="paint9_linear_177_8" x1="273" y1="-1.07059e-05" x2="9.63902e-07" y2="249" gradientUnits="userSpaceOnUse">
<stop stop-color="#FEA855"/>
<stop offset="1" stop-color="#FF4C00"/>
</linearGradient>
<linearGradient id="paint10_linear_177_8" x1="273" y1="-1.07059e-05" x2="9.63902e-07" y2="249" gradientUnits="userSpaceOnUse">
<stop stop-color="#FEA855"/>
<stop offset="1" stop-color="#FF4C00"/>
</linearGradient>
<linearGradient id="paint11_linear_177_8" x1="273" y1="-1.07059e-05" x2="9.63902e-07" y2="249" gradientUnits="userSpaceOnUse">
<stop stop-color="#FEA855"/>
<stop offset="1" stop-color="#FF4C00"/>
</linearGradient>
<linearGradient id="paint12_linear_177_8" x1="273" y1="-1.07059e-05" x2="9.63902e-07" y2="249" gradientUnits="userSpaceOnUse">
<stop stop-color="#FEA855"/>
<stop offset="1" stop-color="#FF4C00"/>
</linearGradient>
<linearGradient id="paint13_linear_177_8" x1="273" y1="-1.07059e-05" x2="9.63902e-07" y2="249" gradientUnits="userSpaceOnUse">
<stop stop-color="#FEA855"/>
<stop offset="1" stop-color="#FF4C00"/>
</linearGradient>
<linearGradient id="paint14_linear_177_8" x1="273" y1="-1.07059e-05" x2="9.63902e-07" y2="249" gradientUnits="userSpaceOnUse">
<stop stop-color="#FEA855"/>
<stop offset="1" stop-color="#FF4C00"/>
</linearGradient>
<linearGradient id="paint15_linear_177_8" x1="273" y1="-1.07059e-05" x2="9.63902e-07" y2="249" gradientUnits="userSpaceOnUse">
<stop stop-color="#FEA855"/>
<stop offset="1" stop-color="#FF4C00"/>
</linearGradient>
<linearGradient id="paint16_linear_177_8" x1="273" y1="-1.07059e-05" x2="9.63902e-07" y2="249" gradientUnits="userSpaceOnUse">
<stop stop-color="#FEA855"/>
<stop offset="1" stop-color="#FF4C00"/>
</linearGradient>
<linearGradient id="paint17_linear_177_8" x1="273" y1="-1.07059e-05" x2="9.63902e-07" y2="249" gradientUnits="userSpaceOnUse">
<stop stop-color="#FEA855"/>
<stop offset="1" stop-color="#FF4C00"/>
</linearGradient>
<linearGradient id="paint18_linear_177_8" x1="273" y1="-1.07059e-05" x2="9.63902e-07" y2="249" gradientUnits="userSpaceOnUse">
<stop stop-color="#FEA855"/>
<stop offset="1" stop-color="#FF4C00"/>
</linearGradient>
<linearGradient id="paint19_linear_177_8" x1="273" y1="-1.07059e-05" x2="9.63902e-07" y2="249" gradientUnits="userSpaceOnUse">
<stop stop-color="#FEA855"/>
<stop offset="1" stop-color="#FF4C00"/>
</linearGradient>
</defs>
</svg>
