<svg width="144" height="144" viewBox="0 0 144 144" fill="none" xmlns="http://www.w3.org/2000/svg">
<path d="M142.525 18.4441L144 10.1601L139.751 2.87644L131.764 0L123.776 2.87644L119.527 10.1601V23.8517H136.013L142.525 18.4441ZM128.305 21.8154L123.01 17.3548L121.811 10.5197L125.269 4.51046L131.767 2.13597L138.265 4.51046L141.723 10.5197L140.521 17.3548L135.225 21.8154H128.305Z" fill="#1D1D1D"/>
<path d="M60.3878 83.5022H58.6002C58.3874 83.5022 58.281 83.609 58.281 83.8226V93.3704C58.281 93.584 58.3874 93.6908 58.6002 93.6908H60.3878C61.5369 93.6908 62.452 93.2636 63.133 92.4092C63.8565 91.5121 64.2183 90.2732 64.2183 88.6926C64.2183 87.0266 63.8565 85.745 63.133 84.8479C62.452 83.9508 61.5369 83.5022 60.3878 83.5022Z" fill="#1D1D1D"/>
<path d="M112.433 31.3276H90.4433L79.2709 13.7058H40.7882V21.1817L0 31.8616V90.4227H22.6995V101.993L40.4335 110.358V126.556H58.1675L76.9655 144H115.626V107.867H135.133L144 69.775V48.9493H112.433V31.3276ZM38.7878 82.5339C38.7878 82.7475 38.7027 82.9397 38.5324 83.1106C38.4047 83.2388 38.2345 83.3028 38.0217 83.3028H28.9561C28.7432 83.3028 28.5517 83.2388 28.3815 83.1106C28.2538 82.9397 28.19 82.7475 28.19 82.5339V55.044C28.19 54.8731 28.1474 54.7876 28.0623 54.7876C27.9771 54.7449 27.892 54.7876 27.8069 54.9158L23.3379 62.7334C23.1677 63.0752 23.04 63.2461 22.9549 63.2461C22.8698 63.2461 22.7208 63.0752 22.508 62.7334L18.039 54.9158C17.9539 54.7876 17.8688 54.7236 17.7836 54.7236C17.6985 54.7236 17.656 54.809 17.656 54.9799V82.5339C17.656 82.7475 17.5708 82.9397 17.4006 83.1106C17.2729 83.2388 17.1027 83.3028 16.8899 83.3028H7.82424C7.61143 83.3028 7.4199 83.2388 7.24966 83.1106C7.12197 82.9397 7.05813 82.7475 7.05813 82.5339V39.2164C7.05813 39.0028 7.12197 38.8319 7.24966 38.7038C7.4199 38.5329 7.61143 38.4475 7.82424 38.4475H16.7622C17.1878 38.4475 17.507 38.6183 17.7198 38.9601L22.8272 48.2516C22.9549 48.4224 23.0826 48.4224 23.2102 48.2516L28.19 38.9601C28.3602 38.6183 28.6794 38.4475 29.1476 38.4475H38.0217C38.2345 38.4475 38.4047 38.5329 38.5324 38.7038C38.7027 38.8319 38.7878 39.0028 38.7878 39.2164V82.5339ZM47.8108 21.4167C47.8108 21.2031 47.8747 21.0322 48.0024 20.904C48.1726 20.7332 48.3641 20.6477 48.5769 20.6477H71.5602C71.773 20.6477 71.9432 20.7332 72.0709 20.904C72.2412 21.0322 72.3263 21.2031 72.3263 21.4167V28.978C72.3263 29.1916 72.2412 29.3838 72.0709 29.5547C71.9432 29.6829 71.773 29.7469 71.5602 29.7469H58.7279C58.5151 29.7469 58.4087 29.8537 58.4087 30.0673V38.1413C58.4087 38.3549 58.5151 38.4617 58.7279 38.4617H65.7505C65.9633 38.4617 66.1336 38.5471 66.2613 38.718C66.4315 38.8462 66.5166 39.0171 66.5166 39.2307V46.8561C66.5166 47.0697 66.4315 47.2619 66.2613 47.4328C66.1336 47.5609 65.9633 47.625 65.7505 47.625H58.7279C58.5151 47.625 58.4087 47.7318 58.4087 47.9454V56.0835C58.4087 56.2971 58.5151 56.4039 58.7279 56.4039H71.5602C71.773 56.4039 71.9432 56.4893 72.0709 56.6602C72.2412 56.7883 72.3263 56.9592 72.3263 57.1728V64.7341C72.3263 64.9477 72.2412 65.14 72.0709 65.3109C71.9432 65.439 71.773 65.5031 71.5602 65.5031H48.5769C48.3641 65.5031 48.1726 65.439 48.0024 65.3109C47.8747 65.14 47.8108 64.9477 47.8108 64.7341V21.4167ZM73.2839 95.5491C72.305 97.5569 70.9005 99.1161 69.0703 100.227C67.2402 101.338 65.1334 101.893 62.7499 101.893H58.6002C58.3874 101.893 58.281 102 58.281 102.213V118.489C58.281 118.703 58.1959 118.895 58.0256 119.066C57.8979 119.194 57.7277 119.258 57.5149 119.258H48.4493C48.2365 119.258 48.0449 119.194 47.8747 119.066C47.747 118.895 47.6832 118.703 47.6832 118.489V75.1719C47.6832 74.9583 47.747 74.7874 47.8747 74.6593C48.0449 74.4884 48.2365 74.403 48.4493 74.403H62.2392C64.7078 74.403 66.8784 75.001 68.7511 76.1972C70.6664 77.3506 72.1561 78.9953 73.2201 81.1313C74.2841 83.2672 74.8162 85.7022 74.8162 88.4363C74.8162 91.1703 74.3054 93.4985 73.2839 95.5491ZM81.3423 83.1106C81.2146 82.9397 81.1507 82.7475 81.1507 82.5339V39.2164C81.1507 39.0028 81.2146 38.8319 81.3423 38.7038C81.5125 38.5329 81.704 38.4475 81.9168 38.4475H104.9C105.113 38.4475 105.283 38.5329 105.411 38.7038C105.581 38.8319 105.666 39.0028 105.666 39.2164V46.7777C105.666 46.9913 105.581 47.1836 105.411 47.3545C105.283 47.4826 105.113 47.5467 104.9 47.5467H92.0678C91.855 47.5467 91.7486 47.6535 91.7486 47.8671V55.9411C91.7486 56.1547 91.855 56.2615 92.0678 56.2615H99.0904C99.3033 56.2615 99.4735 56.3469 99.6012 56.5178C99.7714 56.6459 99.8566 56.8168 99.8566 57.0304V64.6558C99.8566 64.8694 99.7714 65.0617 99.6012 65.2325C99.4735 65.3607 99.3033 65.4248 99.0904 65.4248H92.0678C91.855 65.4248 91.7486 65.5316 91.7486 65.7452V73.8832C91.7486 74.0968 91.855 74.2036 92.0678 74.2036H104.9C105.113 74.2036 105.283 74.289 105.411 74.4599C105.581 74.5881 105.666 74.759 105.666 74.9726V82.5339C105.666 82.7475 105.581 82.9397 105.411 83.1106C105.283 83.2388 105.113 83.3028 104.9 83.3028H81.9168C81.704 83.3028 81.5125 83.2388 81.3423 83.1106ZM108.504 100.533C108.504 100.747 108.419 100.939 108.248 101.11C108.121 101.238 107.95 101.302 107.738 101.302H94.9052C94.6924 101.302 94.586 101.409 94.586 101.622V109.696C94.586 109.91 94.6924 110.017 94.9052 110.017H101.928C102.141 110.017 102.311 110.102 102.439 110.273C102.609 110.401 102.694 110.572 102.694 110.786V118.411C102.694 118.625 102.609 118.817 102.439 118.988C102.311 119.116 102.141 119.18 101.928 119.18H94.9052C94.6924 119.18 94.586 119.287 94.586 119.5V127.638C94.586 127.852 94.6924 127.959 94.9052 127.959H107.738C107.95 127.959 108.121 128.044 108.248 128.215C108.419 128.343 108.504 128.514 108.504 128.728V136.289C108.504 136.503 108.419 136.695 108.248 136.866C108.121 136.994 107.95 137.058 107.738 137.058H84.7543C84.5415 137.058 84.3499 136.994 84.1797 136.866C84.052 136.695 83.9882 136.503 83.9882 136.289V92.9717C83.9882 92.7581 84.052 92.5872 84.1797 92.459C84.3499 92.2882 84.5415 92.2027 84.7543 92.2027H107.738C107.95 92.2027 108.121 92.2882 108.248 92.459C108.419 92.5872 108.504 92.7581 108.504 92.9717V100.533ZM136.147 56.2472C136.36 56.2472 136.53 56.3327 136.658 56.5035C136.828 56.6317 136.913 56.8026 136.913 57.0162V64.5775C136.913 64.7911 136.828 64.9833 136.658 65.1542C136.53 65.2824 136.36 65.3465 136.147 65.3465H128.231C128.018 65.3465 127.912 65.4533 127.912 65.6668V100.334C127.912 100.547 127.827 100.739 127.656 100.91C127.529 101.039 127.358 101.103 127.146 101.103H118.08C117.867 101.103 117.676 101.039 117.505 100.91C117.378 100.739 117.314 100.547 117.314 100.334V65.6668C117.314 65.4533 117.207 65.3465 116.995 65.3465H109.397C109.185 65.3465 108.993 65.2824 108.823 65.1542C108.695 64.9833 108.631 64.7911 108.631 64.5775V57.0162C108.631 56.8026 108.695 56.6317 108.823 56.5035C108.993 56.3327 109.185 56.2472 109.397 56.2472H136.147Z" fill="#1D1D1D"/>
<path d="M135.172 11.2281C135.825 11.2281 136.357 10.7083 136.357 10.064C136.357 9.41963 135.828 8.89988 135.172 8.89988C134.516 8.89988 133.991 9.41963 133.991 10.064C133.991 10.7083 134.519 11.2281 135.172 11.2281Z" fill="#1D1D1D"/>
<path d="M135.559 14.1615C135.559 14.1615 134.324 15.6033 132.136 15.6033C129.948 15.6033 128.763 14.2149 128.71 14.1615C128.497 13.9194 128.146 13.8838 127.898 14.076C127.649 14.2861 127.614 14.6314 127.809 14.8735C127.862 14.9447 129.362 16.7318 132.118 16.7318C134.874 16.7318 136.357 14.9447 136.424 14.8735C136.619 14.6314 136.584 14.2647 136.371 14.076C136.123 13.8838 135.754 13.9194 135.559 14.1615Z" fill="#1D1D1D"/>
<path d="M129.064 11.2281C129.717 11.2281 130.249 10.7083 130.249 10.064C130.249 9.41963 129.721 8.89988 129.064 8.89988C128.408 8.89988 127.88 9.41963 127.88 10.064C127.88 10.7083 128.408 11.2281 129.064 11.2281Z" fill="#1D1D1D"/>
</svg>
